<?xml version="1.0" encoding="utf-8"?>
<!-- Generator: Adobe Illustrator 27.5.0, SVG Export Plug-In . SVG Version: 6.00 Build 0)  -->
<svg version="1.1" xmlns="http://www.w3.org/2000/svg" xmlns:xlink="http://www.w3.org/1999/xlink" x="0px" y="0px"
	 viewBox="0 0 500 500" style="enable-background:new 0 0 500 500;" xml:space="preserve">
<g id="Floor">
	<path id="Floor_17_" style="fill:#F0F0F0;" d="M81.856,441.007c91.217,48.72,239.108,48.722,330.324,0.001
		c91.217-48.722,91.217-127.713,0-176.433c-91.217-48.721-239.108-48.721-330.325-0.001
		C-9.361,313.294-9.361,392.286,81.856,441.007z"/>
</g>
<g id="Shadows">
	<ellipse id="Shadow_23_" style="fill:#E0E0E0;" cx="415.593" cy="374.702" rx="39.867" ry="23.017"/>
	<ellipse id="Shadow_24_" style="fill:#E0E0E0;" cx="169.494" cy="378.799" rx="39.867" ry="23.017"/>
</g>
<g id="Envelope">
	<g id="XMLID_2837_">
		<g id="Letter_1_">
			<g id="XMLID_3678_">
				<g id="XMLID_3679_">
					<path id="XMLID_3680_" style="fill:#27DEBF;" d="M37.646,221.855c0-2.244,1.575-4.973,3.519-6.095l180.029-103.94
						c1.943-1.122,5.095-1.122,7.038,0l3.966,2.29c1.944,1.122,3.519,3.851,3.519,6.095v137.996c0,2.235-1.584,4.978-3.519,6.095
						L52.169,368.236c-1.935,1.117-5.103,1.117-7.038,0l-3.966-2.29c-1.936-1.118-3.519-3.86-3.519-6.095L37.646,221.855z"/>
				</g>
			</g>
			<path id="XMLID_3682_" style="fill:#27DEBF;" d="M228.232,111.82l-88.938-44.604c-4.484-2.759-10.364-1.219-12.92,3.383
				l-87.702,147.79l4.652,2.681l189.477-106.552L228.232,111.82z"/>
			<path id="XMLID_3677_" style="opacity:0.1;" d="M228.232,111.82l-88.938-44.604c-4.484-2.759-10.364-1.219-12.92,3.383
				l-87.702,147.79l4.652,2.681l189.477-106.552L228.232,111.82z"/>
			<path id="XMLID_3676_" style="opacity:0.1;" d="M37.64,221.852v137.994c0,2.248,1.581,4.978,3.529,6.093l3.962,2.297
				c0.3,0.167,0.616,0.316,0.965,0.433c0.449,0.15,0.932,0.266,1.448,0.333c0.916,0.116,1.881,0.083,2.78-0.1
				c0.233-0.05,0.466-0.116,0.682-0.183c0.15-0.05,0.283-0.1,0.416-0.167c-0.649,0.233-1.215,0.2-1.681-0.033
				c-0.666-0.35-1.082-1.149-1.082-2.314V228.211c0-1.448,0.732-2.547,1.831-2.997l-1.831-1.065l-9.989-5.76
				C38.04,219.488,37.64,220.736,37.64,221.852z"/>
			<path id="XMLID_3691_" style="opacity:0.1;" d="M234.886,117.1l-81.13,129.83l-3.99-0.78c-6.25-1.22-12.64,1.3-16.38,6.45
				l-4.92,6.78l-77.97-34.17l-7.17-4.14l189.48-106.55C233.686,115.24,234.376,116.1,234.886,117.1z"/>
		</g>
		<path id="XMLID_3683_" style="fill:#27DEBF;" d="M232.801,114.518c-0.21-0.192-0.829-0.551-1.533-0.944l-87.322-43.677
			c-4.484-2.759-10.364-1.219-12.92,3.383L43.325,221.07L232.801,114.518z"/>
		<path id="XMLID_3687_" style="opacity:0.2;" d="M234.06,262.59c0.974-1.271,1.629-2.886,1.652-4.313l-81.956-11.347L234.06,262.59
			z"/>
		<path id="XMLID_3219_" style="opacity:0.2;" d="M128.466,259.38l-79.04,108.91c-0.48-0.41-0.76-1.12-0.76-2.08v-1.5
			L128.466,259.38z"/>
	</g>
</g>
<g id="Clouds">
	<path id="XMLID_4026_" style="fill:#EBEBEB;" d="M405.554,43.49l6.952,4.014c-0.035-0.311-0.059-0.619-0.059-0.92v-2.014
		c0-3.584,2.516-5.037,5.62-3.245c1.257,0.726,2.413,1.876,3.349,3.221c0.508-4.507,4.044-6.185,8.338-3.706
		c4.643,2.681,8.408,9.201,8.408,14.563v3.013c0,1.389-0.257,2.558-0.712,3.49l5.774,3.334c1.722,0.994,3.117,3.411,3.117,5.399
		c0,1.988-1.396,2.794-3.117,1.8l-37.671-21.749c-1.722-0.994-3.117-3.411-3.117-5.399C402.437,43.302,403.833,42.496,405.554,43.49
		z"/>
	<path id="XMLID_3811_" style="fill:#EBEBEB;" d="M375.805,63.745l5.247,3.029c-0.026-0.234-0.044-0.467-0.044-0.695v-1.52
		c0-2.705,1.899-3.801,4.241-2.449c0.949,0.548,1.821,1.416,2.528,2.431c0.384-3.401,3.052-4.668,6.293-2.797
		c3.504,2.023,6.345,6.944,6.345,10.99v2.274c0,1.048-0.194,1.931-0.537,2.634l4.358,2.516c1.299,0.75,2.353,2.575,2.353,4.075
		s-1.053,2.108-2.353,1.358l-28.431-16.414c-1.299-0.75-2.353-2.575-2.353-4.075C373.452,63.603,374.505,62.994,375.805,63.745z"/>
</g>
<g id="Character_2">
	<g id="Character_9_">
		<g id="XMLID_3546_">
			<path id="XMLID_3565_" style="fill:#FFA8A7;" d="M395.111,219.166c12.232-10.504,23.663-34.45,20.402-41.916
				c-5.635-0.291-9.749,1.847-13.378,8.509c0,0-10.278,20.01-16.049,25.893c-4.667,4.758-10.324,8.887-18.008,11.216
				c-0.95,0.288-3.571,0.205-4.52-0.087c-2.547-0.782-3.972-0.107-6.431-0.226c-1.925-0.094-2.93-0.723-3.151-0.301
				c-0.283,0.543-0.358,1.866,1.086,2.773c0.727,0.456,1.415,0.649,2.92,1.096c0,0-2.492,0.876-6.186,0.986
				c-5.007,0.149-7.116,1.797-2.757,6.473c2.146,2.302,7.837,3.703,15.564,1.624c2.595-0.698,6.525-2.432,9.65-3.785
				C384.377,227.037,390.965,222.567,395.111,219.166z"/>
		</g>
		<g id="XMLID_3430_">
			<path id="XMLID_3509_" style="fill:#263238;" d="M434.348,365.628v-1.255c-0.495,1.472-2.79,7.808-6.272,10.983
				c-2.768,2.524-6.543,5.44-7.503,8.254c-0.999,2.927,5.254,3.91,7.84,3.453c3.004-0.532,6.892-2.237,9.007-4.836
				c1.488-1.828,2.435-3.994,3.497-5.431c1.062-1.437,3.511-3.042,4.085-4.705c0.316-0.914-0.059-2.915-0.502-4.606
				c-0.407-1.551-0.848-3.257-1.377-3.112c-0.001,0.189,0,0.957,0,0.957c-0.637,0.706-2.399,1.406-4.387,1.483
				C437.452,366.862,434.338,366.608,434.348,365.628z"/>
			<path id="XMLID_3508_" style="fill:#FFA8A7;" d="M425.571,377.578c0.858-0.766,1.722-1.515,2.505-2.229
				c2.432-2.219,4.286-5.981,5.351-8.549c0.608-1.466,0.921-3.031,0.921-4.617v-5.001h8.774v8.14v0v0.001v0.217l-0.044,0.022
				c-0.422,1.823-4.449,6.674-6.737,9.836c-1.533,2.12-4.447,4.817-7.929,5.282C425.113,381.12,423.427,380.08,425.571,377.578z"/>
			<path id="XMLID_3507_" style="fill:#263238;" d="M400.124,356.979v-1.255c-0.495,1.472-2.79,7.808-6.272,10.984
				c-2.768,2.524-6.543,5.44-7.503,8.254c-0.999,2.927,5.254,3.91,7.84,3.453c3.004-0.532,6.891-2.237,9.007-4.836
				c1.488-1.828,2.435-3.994,3.497-5.431c1.062-1.437,3.511-3.042,4.085-4.705c0.316-0.914-0.059-2.915-0.503-4.606
				c-0.407-1.551-0.847-3.257-1.377-3.112c-0.001,0.189,0,0.957,0,0.957c-0.637,0.706-2.399,1.406-4.387,1.483
				C403.227,358.213,400.113,357.958,400.124,356.979z"/>
			<path id="XMLID_3506_" style="fill:#FFA8A7;" d="M391.347,368.928c0.858-0.766,1.722-1.515,2.506-2.229
				c2.432-2.219,4.286-5.981,5.351-8.549c0.608-1.466,0.921-3.03,0.921-4.617v-5.001h8.774v8.14v0v0.001v0.217l-0.044,0.022
				c-0.422,1.823-4.449,6.674-6.737,9.836c-1.533,2.12-4.447,4.817-7.929,5.282C390.889,372.471,389.202,371.43,391.347,368.928z"/>
			<path id="XMLID_3432_" style="fill:#27DEBF;" d="M441.377,229.267c6.802,14.857-0.245,67.193-0.245,67.193
				c0.204,2.411,2.961,7.155,3.988,17.766c1.214,12.538-1.904,44.019-1.904,44.019s-4.062,2.657-8.867,0.353
				c0,0-8.362-47.414-9.935-59.88c-1.372-10.879-4.006-34.801-4.006-34.801l-7.486,34.742c0,0,1.921,6.095,2.371,10.738
				c0.71,7.333-6.394,41.472-6.394,41.472s-3.027,1.111-8.774,0.264c0,0-2.513-45.305-3.175-54.138
				c-1.112-14.835,2.827-61.121,5.549-69.902L441.377,229.267z"/>
			<path id="XMLID_3431_" style="opacity:0.15;" d="M420.407,263.917l-2.209-13.799c0,0-9.343-1.935-13.58-5.919
				c0,0,4.445,5.53,11.048,7.341l2.48,10.624l-4.336,32.169L420.407,263.917z"/>
		</g>
		<g id="XMLID_3408_">
			<path id="XMLID_3428_" style="fill:#F0F0F0;" d="M429.378,177.652L429.378,177.652c8.721,0.6,9.333,4.811,11.515,9.418
				c1.661,3.507,1.68,7.573,0.412,11.24l-6.077,17.581c0,0,2.846,6.878,6.149,13.376c-15.251,8.512-34.294,4.037-38.88-2.174
				c-0.194-1.318,0.985-11.618,1.71-18.346c-2.686-6.738-3.395-11.009-2.262-15.463c2.104-8.268,10.27-16.322,13.884-16.029
				L429.378,177.652z"/>
			<g id="XMLID_3412_">
				<g id="XMLID_3510_">
					<path id="XMLID_3511_" style="fill:#263238;" d="M402.168,175.175h31.809c3.99,0,7.225-3.235,7.225-7.225v-15.351
						c0-9.898-8.024-17.921-17.921-17.921h-3.191c-9.898,0-17.921,8.024-17.921,17.921V175.175z"/>
				</g>
				<path id="XMLID_3427_" style="fill:#263238;" d="M438.599,136.998l-2.64,4.243c1.17,0.783,2.71,0.467,3.439-0.704
					C440.127,139.365,439.77,137.781,438.599,136.998z"/>
				<path id="XMLID_3557_" style="fill:#263238;" d="M442.238,140.877l-4.942,0.741c0.163,1.398,1.402,2.366,2.766,2.161
					C441.427,143.575,442.401,142.275,442.238,140.877z"/>
				<g id="XMLID_3425_">
					<path id="XMLID_3426_" style="fill:#FFA8A7;" d="M409.581,142.571c-2.062,1.218-4.609,6.404-4.358,17.273
						c0.213,9.212,3.199,11.488,4.698,12.144c1.499,0.656,4.391,0.257,7.202-0.212v5.529c0,0-3.885,4.513-3.641,7.048
						c0.245,2.535,5.61,3.134,9.246,0.658c3.636-2.477,5.967-6.246,5.967-6.246V165.4c0,0,1.898,2.534,5.002,0.473
						c3.104-2.061,3.222-7.164,1.417-8.996c-1.805-1.832-5.694-1.252-6.42,1.279c0,0-4.483,0.164-10.454-3.116
						C412.271,151.76,409.978,146.143,409.581,142.571z"/>
				</g>
				<g id="XMLID_3423_">
					<path id="XMLID_3424_" style="fill:#263238;" d="M416.54,157.529c-0.033,0.664,0.458,1.227,1.097,1.257
						c0.639,0.03,1.184-0.483,1.218-1.147c0.033-0.664-0.458-1.227-1.097-1.257C417.118,156.352,416.573,156.866,416.54,157.529z"/>
				</g>
				<g id="XMLID_3421_">
					<path id="XMLID_3422_" style="fill:#F28F8F;" d="M415.199,165.339l-2.691,0.858c0.223,0.77,1.007,1.202,1.75,0.965
						C415.001,166.925,415.422,166.109,415.199,165.339z"/>
				</g>
				<g id="XMLID_3419_">
					<path id="XMLID_3420_" style="fill:#263238;" d="M407.041,153.972l2.344-1.625c-0.428-0.669-1.299-0.848-1.947-0.4
						C406.791,152.397,406.613,153.303,407.041,153.972z"/>
				</g>
				<g id="XMLID_3417_">
					<path id="XMLID_3418_" style="fill:#263238;" d="M407.582,156.692c-0.034,0.664,0.458,1.227,1.097,1.257
						c0.639,0.03,1.184-0.483,1.217-1.147c0.033-0.664-0.458-1.227-1.097-1.257C408.16,155.514,407.615,156.028,407.582,156.692z"/>
				</g>
				<g id="XMLID_3415_">
					<polygon id="XMLID_3416_" style="fill:#F28F8F;" points="413.24,156.029 413.056,163.002 409.385,161.865 					"/>
				</g>
				<g id="XMLID_3413_">
					<path id="XMLID_3414_" style="fill:#F28F8F;" d="M417.123,171.776c2.963-0.389,9.058-2.139,10.008-4.549
						c0,0-0.317,1.514-2.137,3.075c-1.821,1.561-7.87,3.319-7.87,3.319V171.776z"/>
				</g>
			</g>
			<path id="XMLID_3411_" style="fill:#E6E6E6;" d="M425.478,230.916c5.009-1.186,8.188-6.254,6.864-11.229
				c-0.05-0.189-0.102-0.351-0.156-0.479c-0.98-2.358-3.088-2.048-3.088-2.048l0,0c1.977-1.311,3.349-3.356,3.812-5.682
				l1.855-11.018c0,0,0.413-2.435-0.471-5.345l6.13-7.09c0,0,0.44,0.306,1.132,0.788c0.956,3.071,0.812,6.422-0.251,9.497
				l-6.077,17.581c0,0,2.845,6.878,6.149,13.376c-11.24,6.273-24.532,5.49-32.586,2.159
				C415.152,232.412,421.047,231.965,425.478,230.916z"/>
			<g id="XMLID_3409_">
				<path id="XMLID_3410_" style="fill:#FFA8A7;" d="M456.986,221.415c-7.918-32.365-13.773-43.159-23.391-43.034
					c-2.807,3.356-2.032,13.495,2.406,19.648c0,0,9.894,20.874,11.473,28.295c1.387,6.519,2.958,14.721,2.858,20.325
					c-0.018,0.993-0.427,1.936-1.1,2.666c-1.806,1.958-1.814,3.535-2.984,5.701c-0.917,1.696-1.919,2.33-1.633,2.711
					c0.367,0.49,1.528,1.13,2.97,0.219c0.726-0.458,1.198-0.996,2.251-2.16c0,0-0.287,2.626-1.785,6.005
					c-2.03,4.579-1.536,6.916,4.645,5.284c3.874-1.022,6.305-4.248,6.885-13.558c0.167-2.682,0.42-6.913,0.102-10.304
					C458.857,234.384,458.26,226.624,456.986,221.415z"/>
			</g>
		</g>
	</g>
</g>
<g id="Character_1">
	<g id="XMLID_3429_">
		<g id="XMLID_3221_">
			<g id="Character_boy_3_">
				<g id="XMLID_3296_">
					<g id="XMLID_3298_">
						<path id="XMLID_3299_" style="fill:#B16668;" d="M233.605,199.07c-1.523,1.258-3.262,1.903-5.265,3.846
							c-1.764,1.711-2.522,2.386-4.65,3.23c-2.307,0.915-4.48,0.644-10.883-0.38c-7.833-1.253-11.204-2.569-14.583-5.452
							c-3.951-3.371-12.789-13.536-17.062-17.529c-4.518-4.222-10.73-2.591-10.73-2.591s2.56,9.159,8.477,17.581
							c3.423,4.872,9.815,9.533,12.707,11.94c4.626,3.85,7.086,5.372,17.25,6.136c7.671,0.577,8.689,0.764,14.965,0.578
							c2.269-0.067,3.684-0.09,7.398-0.4c1.841-0.153,3.337-0.385,4.77-0.832c1.82-0.568,3.396-0.909,4.983-1.972
							c1.998-1.339,3.711-3.15,4.739-5.325c0.566-1.196,0.921-2.51,0.883-3.833c-0.038-1.323-0.491-2.654-1.382-3.633
							c-0.181-0.198-0.387-0.387-0.643-0.47c-0.461-0.15-0.951,0.076-1.382,0.297c-2.41,1.234-4.824,2.925-7.34,3.895
							c-2.126,0.819-3.741,1.104-3.584,0.676c0.158-0.428,1.44-0.823,2.759-2.309c1.26-1.42,1.65-3.564,0.798-4.208
							C234.978,197.673,235.128,197.811,233.605,199.07z"/>
					</g>
					<path id="XMLID_3297_" style="fill:#455A64;" d="M168.611,180.16c0,0,3.82-1.98,7.774-0.844
						c3.953,1.136,7.12,3.721,10.891,7.768c3.771,4.046,10.133,10.592,10.133,10.592s-3.132,7.93-10.172,10.748l-14.759-13.654
						L168.611,180.16z"/>
				</g>
				<g id="Character_boy_4_">
					<g id="XMLID_3232_">
						
							<rect id="XMLID_3295_" x="146.928" y="361.366" transform="matrix(-1 -1.224647e-16 1.224647e-16 -1 302.804 738.0491)" style="fill:#B16668;" width="8.948" height="15.318"/>
						<polygon id="XMLID_3282_" style="fill:#B16668;" points="171.688,365.223 180.631,365.53 181.078,349.32 171.688,349.013 
													"/>
						<path id="XMLID_3278_" style="fill:#37474F;" d="M143.117,246.989c0,8.544,1.51,58.243,1.51,58.243
							c-0.208,2.459-2.575,6.83-2.759,15.686c-0.267,12.843,4.678,48.106,4.678,48.106s4.344,2.538,9.962,0.197
							c0,0,4.058-47.801,5.662-60.513c1.399-11.094,3.773-41.234,3.773-41.234l4.213,36.219c0,0-1.65,6.617-1.109,14.22
							c0.418,5.88,2.075,42.288,2.075,42.288s4.212,2.858,10.331,0.79c0,0,6.311-51.904,6.414-57.299
							c0.118-6.151-2.338-68.936-2.338-68.936L143.117,246.989z"/>
						<path id="XMLID_3277_" style="fill:#F0F0F0;" d="M148.995,184.133c-1.967,0.88-3.522,2.482-4.311,4.488
							c-0.703,1.787-1.31,4.318-1.31,7.734v17.531l-0.256,33.104c12.843,6.769,29.17,7.222,42.871-2.784
							c0,0-0.765-42.61-0.765-49.58c0-0.315-0.008-0.634-0.024-0.957c-0.498-9.956-10.3-16.787-19.953-14.304l-8.109,2.086
							L148.995,184.133L148.995,184.133z"/>
						<g id="XMLID_3245_">
							<g id="XMLID_3255_">
								
									<ellipse id="XMLID_3262_" transform="matrix(0.2298 -0.9732 0.9732 0.2298 -15.0113 284.0807)" style="fill:#263238;" cx="171.97" cy="151.524" rx="12.297" ry="12.297"/>
								<path id="XMLID_3261_" style="fill:#263238;" d="M150.714,160.267c0,0,1.993,9.362,2.792,10.9
									c0.799,1.538,2.45,1.975,2.45,1.975l-0.139-6.586L150.714,160.267z"/>
								<path id="XMLID_3260_" style="fill:#263238;" d="M153.215,146.856c0,0-2.146-0.368-3.819,1.343
									c-1.64,1.677-0.724,6.927,1.318,12.069l3.754,0.431L153.215,146.856z"/>
								<path id="XMLID_3259_" style="fill:#B16668;" d="M155.593,160.702c-0.753,0.449-1.826-0.996-2.755-1.968
									c-0.928-0.971-3.958-2.298-5.47,0.887c-1.54,3.246,1.334,7.534,3.72,8.283c4.111,1.29,4.728-1.347,4.728-1.347l0.304,15.283
									l0,0c5.111,6.553,19.296,6,13.385-0.846l-0.012-4.513c0,0,3.725,0.565,5.542,0.284c3.023-0.467,4.925-2.853,5.842-6.125
									c1.473-5.256,2.032-9.501,0.783-19.838c-1.37-11.33-14.548-11.449-21.665-6.969
									C152.879,148.312,155.593,160.702,155.593,160.702z"/>
								<path id="XMLID_3258_" style="fill:#263238;" d="M155.593,161.968c-0.379,0.007-1.818-2.381-2.755-3.234
									c-1.298-1.181,0.376-11.878,0.376-11.878s-1.247-2.659,1.253-5.41c1.778-1.957,3.712-3.193,8.842-3.467
									c3.003-0.16,7.805,0.311,10.502,0.493c5.063,0.342,6.933-0.905,9.84-1.721c2.225-0.624,2.478,7.411-3.143,10.072
									c0,0-1.829,1.18-6.645,1.767c-4.816,0.586-12.316-0.113-13.342-0.253c-1.396-0.191-1.695,1.162-2.447,4.86
									C157.413,156.442,156.865,161.943,155.593,161.968z"/>
								<path id="XMLID_3257_" style="fill:#263238;" d="M153.222,147.688l-4.551-2.443c0.646-1.304,2.188-1.814,3.445-1.14
									C153.373,144.78,153.868,146.384,153.222,147.688z"/>
								<path id="XMLID_3256_" style="fill:#9A4A4D;" d="M169.494,176.481c0,0-6.749-1.359-9.108-2.614
									c-1.579-0.84-2.88-2.294-3.262-3.227c0,0,0.442,2.003,1.853,3.806c1.726,2.206,10.517,3.83,10.517,3.83L169.494,176.481z"/>
							</g>
							<g id="XMLID_3246_">
								<path id="XMLID_3254_" style="fill:#263238;" d="M169.164,159.014c0,0.776-0.606,1.404-1.352,1.402
									c-0.747-0.002-1.352-0.633-1.352-1.409c0-0.776,0.605-1.403,1.352-1.401C168.559,157.607,169.164,158.238,169.164,159.014z"
									/>
								<path id="XMLID_3253_" style="fill:#263238;" d="M167.73,153.908l-2.893,1.597c-0.427-0.831-0.125-1.863,0.674-2.303
									C166.31,152.76,167.303,153.077,167.73,153.908z"/>
								<path id="XMLID_3252_" style="fill:#9A4A4D;" d="M168.883,168.357l3.087,1.158c-0.305,0.885-1.244,1.343-2.097,1.023
									C169.021,170.218,168.577,169.241,168.883,168.357z"/>
								<path id="XMLID_3251_" style="fill:#263238;" d="M180.832,155.034l-2.638-2.032c0.538-0.755,1.565-0.913,2.293-0.352
									C181.216,153.211,181.37,154.279,180.832,155.034z"/>
								<path id="XMLID_3250_" style="fill:#263238;" d="M180.02,158.629c0,0.776-0.605,1.403-1.353,1.401
									c-0.747-0.002-1.352-0.633-1.352-1.409c0-0.776,0.606-1.404,1.352-1.402C179.414,157.222,180.02,157.853,180.02,158.629z"/>
								<polygon id="XMLID_3249_" style="fill:#9A4A4D;" points="173.13,157.346 173.574,165.48 177.82,164.032 								"/>
							</g>
						</g>
						<path id="XMLID_3244_" style="fill:#263238;" d="M155.876,372.267v-1.28c0.856,0.373,2.845,7.962,6.395,11.201
							c2.822,2.574,6.673,5.548,7.652,8.418c1.019,2.985-5.362,4.633-7.998,4.166c-3.064-0.543-8.374-2.7-9.707-4.7
							c-1.333-2-1.957-4.95-3.04-6.416c-1.083-1.466-3.58-3.102-4.166-4.798c-0.322-0.932,0.06-2.973,0.512-4.697
							c0.415-1.582,0.864-3.322,1.404-3.173c0.001,0.193,0,0.976,0,0.976c0.65,0.72,2.447,1.434,4.473,1.512
							C152.711,373.525,155.887,373.265,155.876,372.267z"/>
						<path id="XMLID_3243_" style="fill:#263238;" d="M180.726,362.771c0.464,0.016,0.843,0.671,1.868,1.781
							c1.239,1.341,3.264,2.787,5.264,3.787c3.35,1.677,9.864,4.257,12.812,5.585c1.842,0.83,1.755,3.054-0.148,4.32
							c-1.904,1.266-6.5,2.178-12.019,0.944c-3.007-0.672-6.92-3.449-9.398-3.299c-2.477,0.15-7.113,0.114-8.941-1.146
							c-1.828-1.26-1.097-3.952-0.58-6.265c0.564-2.524,1.269-6.461,2.105-6.289v0.87c1.076,1.629,6.627,2.292,8.99,1.093
							L180.726,362.771z"/>
						<path id="XMLID_3242_" style="fill:#263238;" d="M165.943,267.475c0,0,7.152-2.015,12.46-7.144c0,0-2.404,4.502-9.554,8.691
							l0.953,31.628L165.943,267.475z"/>
					</g>
				</g>
			</g>
		</g>
		<g id="XMLID_626_">
			<g id="XMLID_2909_">
				<path id="XMLID_3082_" style="fill:#FAFAFA;" d="M340.419,77.924c-0.15-1.12-1.06-1.53-2.14-0.9l-117.53,67.867
					c-0.59,0.34-1.13,0.94-1.53,1.62l-4.06-2.35c0.4-0.68,0.93-1.27,1.53-1.61l117.53-67.867c1.19-0.69,3.07-0.73,4.19-0.08
					C339.439,75.204,340.289,76.624,340.419,77.924z"/>
				<path id="XMLID_3085_" style="fill:#E0E0E0;" d="M220.345,360.845c-0.08,0.04-0.727,0.257-1.276,0.316
					c-0.9,0.096-1.84-0.04-2.52-0.43c-1.12-0.65-2.03-2.29-2.03-3.67v-210.76c0-0.09,0-0.17,0.01-0.26
					c0.02-0.18,0.05-0.36,0.09-0.54c0.11-0.45,0.3-0.91,0.54-1.34l4.06,2.35c-0.39,0.68-0.63,1.44-0.63,2.13v210.76
					c0,0.98,0.49,1.55,1.19,1.55c0.09,0,0.19-0.01,0.28-0.03C220.149,360.901,220.255,360.885,220.345,360.845z"/>
				<path id="XMLID_2908_" style="fill:#FAFAFA;" d="M218.585,148.645c0,22.405,0,188.357,0,210.76c0,1.381,0.969,1.94,2.165,1.25
					l117.529-67.869c1.196-0.69,2.165-2.369,2.165-3.75l-0.001-210.76c0-1.381-0.969-1.94-2.165-1.25L220.75,144.895
					C219.554,145.585,218.585,147.264,218.585,148.645z"/>
			</g>
			<g id="XMLID_2950_">
				<g id="XMLID_2922_">
					<path id="XMLID_627_" style="fill:#27DEBF;" d="M240.857,175.756c-0.162-0.155-0.243-0.495-0.243-1.019v-21.152
						c0-0.522,0.081-0.962,0.243-1.317c0.162-0.355,0.429-0.64,0.799-0.854l1.737-1.003c0.387-0.223,0.657-0.254,0.812-0.093
						c0.154,0.16,0.231,0.514,0.231,1.061v21.152c0,0.523-0.077,0.955-0.231,1.293c-0.154,0.339-0.425,0.62-0.812,0.843
						l-1.737,1.003C241.286,175.884,241.019,175.912,240.857,175.756z"/>
					<path id="XMLID_2927_" style="fill:#27DEBF;" d="M247.622,171.85c-0.162-0.155-0.243-0.495-0.243-1.019v-21.188
						c0-0.523,0.081-0.957,0.243-1.3c0.163-0.344,0.436-0.627,0.822-0.85l1.437-0.83c0.263-0.151,0.46-0.211,0.591-0.181
						c0.131,0.032,0.274,0.157,0.429,0.377l6.487,10.344v-13.306c0-0.522,0.081-0.961,0.243-1.317
						c0.162-0.355,0.429-0.64,0.799-0.854l1.738-1.003c0.386-0.223,0.656-0.254,0.81-0.093c0.154,0.16,0.232,0.514,0.232,1.061
						v21.152c0,0.523-0.078,0.955-0.232,1.293c-0.154,0.339-0.425,0.621-0.81,0.843l-1.46,0.843
						c-0.247,0.143-0.437,0.198-0.567,0.167c-0.131-0.032-0.274-0.157-0.429-0.377l-6.511-10.295v13.305
						c0,0.523-0.076,0.955-0.232,1.293c-0.154,0.339-0.425,0.62-0.811,0.843l-1.737,1.003
						C248.05,171.978,247.785,172.007,247.622,171.85z"/>
					<path id="XMLID_2935_" style="fill:#27DEBF;" d="M269.992,159.096c-0.125-0.071-0.24-0.277-0.348-0.62l-5.862-18.661
						c-0.046-0.187-0.069-0.363-0.069-0.53c0-0.404,0.139-0.687,0.417-0.847l2.78-1.605c0.217-0.125,0.382-0.149,0.498-0.074
						c0.116,0.076,0.205,0.227,0.267,0.453l3.707,13.163l3.706-17.443c0.124-0.618,0.387-1.043,0.789-1.275l2.779-1.605
						c0.278-0.161,0.417-0.038,0.417,0.366c0,0.167-0.022,0.37-0.069,0.61l-5.838,25.415c-0.108,0.467-0.228,0.81-0.359,1.028
						c-0.131,0.218-0.32,0.399-0.567,0.542l-1.691,0.977C270.3,159.132,270.115,159.168,269.992,159.096z"/>
					<path id="XMLID_2937_" style="fill:#27DEBF;" d="M281.818,152.107c-0.162-0.155-0.243-0.495-0.243-1.018v-21.152
						c0-0.522,0.081-0.962,0.243-1.317c0.162-0.355,0.429-0.64,0.8-0.854l1.736-1.003c0.387-0.223,0.657-0.254,0.811-0.093
						c0.154,0.16,0.232,0.514,0.232,1.061v21.152c0,0.523-0.077,0.955-0.232,1.293c-0.154,0.339-0.425,0.62-0.811,0.843
						l-1.736,1.003C282.247,152.235,281.98,152.264,281.818,152.107z"/>
					<path id="XMLID_2939_" style="fill:#27DEBF;" d="M292.428,145.981c-0.161-0.156-0.242-0.496-0.242-1.019v-18.37l-3.8,2.194
						c-0.371,0.214-0.626,0.249-0.765,0.103c-0.139-0.146-0.209-0.491-0.209-1.039v-1.319c0-0.547,0.07-0.98,0.209-1.298
						c0.139-0.317,0.393-0.584,0.765-0.798l11.445-6.608c0.37-0.214,0.629-0.244,0.776-0.092c0.146,0.154,0.22,0.504,0.22,1.051
						v1.319c0,0.523-0.073,0.947-0.22,1.269c-0.147,0.323-0.406,0.591-0.776,0.805l-3.8,2.194v18.37c0,0.523-0.082,0.957-0.244,1.3
						c-0.161,0.343-0.436,0.627-0.822,0.85l-1.714,0.99C292.865,146.104,292.591,146.137,292.428,145.981z"/>
					<path id="XMLID_2945_" style="fill:#27DEBF;" d="M303.086,139.828c-0.162-0.155-0.243-0.495-0.243-1.018v-21.152
						c0-0.522,0.081-0.962,0.243-1.317c0.162-0.355,0.429-0.64,0.799-0.854l9.615-5.551c0.371-0.214,0.625-0.248,0.765-0.103
						c0.139,0.146,0.208,0.492,0.208,1.039v1.32c0,0.547-0.069,0.979-0.208,1.297c-0.14,0.319-0.393,0.584-0.765,0.798l-6.835,3.946
						v5.636l4.773-2.756c0.37-0.214,0.625-0.248,0.765-0.103c0.139,0.146,0.208,0.493,0.208,1.04v1.248
						c0,0.547-0.069,0.979-0.208,1.297c-0.14,0.319-0.395,0.585-0.765,0.799l-4.773,2.756v5.671l6.812-3.933
						c0.371-0.214,0.626-0.242,0.765-0.084c0.14,0.157,0.209,0.509,0.209,1.056v1.284c0,0.547-0.069,0.974-0.209,1.28
						c-0.139,0.307-0.394,0.566-0.765,0.78l-9.592,5.538C303.515,139.955,303.249,139.984,303.086,139.828z"/>
				</g>
				<g id="XMLID_625_">
					<path id="XMLID_616_" style="fill:#E0E0E0;" d="M241.059,193.63l76.912-44.405c1.196-0.69,2.165-0.131,2.165,1.25l0,2.036
						c0,1.381-0.97,3.06-2.165,3.75l-76.911,44.405c-1.196,0.69-2.165,0.131-2.165-1.25v-2.036
						C238.894,196,239.863,194.321,241.059,193.63z"/>
					<path id="XMLID_618_" style="fill:#E6E6E6;" d="M253.246,208.787l52.539-30.326c1.196-0.69,2.165-0.131,2.165,1.25l0,2.036
						c0,1.381-0.97,3.06-2.165,3.75l-52.538,30.326c-1.196,0.69-2.165,0.131-2.165-1.25v-2.036
						C251.081,211.156,252.05,209.478,253.246,208.787z"/>
					<path id="XMLID_619_" style="fill:#E6E6E6;" d="M253.246,223.052l52.539-30.326c1.196-0.69,2.165-0.131,2.165,1.25l0,2.036
						c0,1.381-0.97,3.06-2.165,3.75l-52.538,30.326c-1.196,0.69-2.165,0.131-2.165-1.25v-2.036
						C251.081,225.422,252.05,223.743,253.246,223.052z"/>
					<path id="XMLID_620_" style="fill:#E6E6E6;" d="M253.246,237.317l52.539-30.326c1.196-0.69,2.165-0.131,2.165,1.25l0,2.036
						c0,1.381-0.97,3.06-2.165,3.75l-52.538,30.326c-1.196,0.69-2.165,0.131-2.165-1.25v-2.036
						C251.081,239.687,252.05,238.008,253.246,237.317z"/>
				</g>
				<g id="XMLID_617_">
					<path id="XMLID_624_" style="fill:#E0E0E0;" d="M241.059,266.849l76.912-44.405c1.196-0.69,2.165-0.131,2.165,1.25l0,2.036
						c0,1.381-0.97,3.06-2.165,3.75l-76.911,44.405c-1.196,0.69-2.165,0.131-2.165-1.25v-2.036
						C238.894,269.219,239.863,267.54,241.059,266.849z"/>
					<path id="XMLID_623_" style="fill:#E6E6E6;" d="M253.246,282.067l52.539-30.326c1.196-0.69,2.165-0.131,2.165,1.25l0,2.036
						c0,1.381-0.97,3.06-2.165,3.75l-52.538,30.326c-1.196,0.69-2.165,0.131-2.165-1.25v-2.036
						C251.081,284.436,252.05,282.757,253.246,282.067z"/>
					<path id="XMLID_622_" style="fill:#E6E6E6;" d="M253.246,296.332l52.539-30.326c1.196-0.69,2.165-0.131,2.165,1.25l0,2.036
						c0,1.381-0.97,3.06-2.165,3.75l-52.538,30.326c-1.196,0.69-2.165,0.131-2.165-1.25v-2.036
						C251.081,298.701,252.05,297.022,253.246,296.332z"/>
					<path id="XMLID_621_" style="fill:#E6E6E6;" d="M253.246,310.597l52.539-30.326c1.196-0.69,2.165-0.131,2.165,1.25l0,2.036
						c0,1.381-0.97,3.06-2.165,3.75l-52.538,30.326c-1.196,0.69-2.165,0.131-2.165-1.25v-2.036
						C251.081,312.966,252.05,311.287,253.246,310.597z"/>
				</g>
			</g>
		</g>
		<g id="XMLID_3213_">
			<g id="XMLID_3217_">
				<path id="XMLID_3218_" style="fill:#B16668;" d="M213.07,221.564c-1.683,1.034-3.495,1.43-5.749,3.076
					c-1.985,1.449-2.865,1.464-5.089,2.003c-2.412,0.585-21.518-5.065-24.863-7.987c-5.196-4.538-14.408-20.912-17.845-24.847
					c-2.831-3.241-6.765-7.627-10.253-7.649c-5.769,1.746-4.463,10.326,0.364,18.053c3.99,6.387,12.212,19.143,20.798,24.774
					c4.161,2.729,24.498,7.539,30.866,7.956c1.937,0.127,5.364,0.961,8.402,1.156c4.203,0.27,6.985-0.657,8.704-1.489
					c2.165-1.048,4.114-2.603,5.434-4.613c0.727-1.106,1.262-2.357,1.408-3.672c0.147-1.315-0.116-2.697-0.862-3.79
					c-0.151-0.222-0.329-0.437-0.571-0.555c-0.435-0.212-0.952-0.057-1.41,0.101c-2.558,0.887-5.185,2.225-7.811,2.835
					c-2.219,0.515-3.858,0.572-3.643,0.17c0.216-0.402,1.541-0.614,3.054-1.903c0.181-0.154,0.36-0.325,0.516-0.501l-0.001-3.992
					C214.248,220.788,213.857,221.08,213.07,221.564z"/>
			</g>
			<g id="XMLID_3214_">
				<g id="XMLID_3215_">
					<path id="XMLID_3216_" style="fill:#455A64;" d="M148.905,184.136c-4.261,2.089-5.99,5.265-4.097,12.35
						c1.699,6.361,8.219,17.206,13.35,22.515c0,0,8.776-4.158,13.449-9.564c-4.628-7.077-6.851-11.239-11.195-17.224
						S151.507,183.42,148.905,184.136z"/>
				</g>
			</g>
		</g>
	</g>
</g>
</svg>
